<svg id="visual" viewBox="0 0 960 540" width="960" height="540" xmlns="http://www.w3.org/2000/svg" xmlns:xlink="http://www.w3.org/1999/xlink" version="1.1"><rect x="0" y="0" width="960" height="540" fill="#ff6209"></rect><defs><linearGradient id="grad1_0" x1="43.8%" y1="0%" x2="100%" y2="100%"><stop offset="14.444444444444446%" stop-color="#eeebdb" stop-opacity="1"></stop><stop offset="85.55555555555554%" stop-color="#eeebdb" stop-opacity="1"></stop></linearGradient></defs><defs><linearGradient id="grad1_1" x1="43.8%" y1="0%" x2="100%" y2="100%"><stop offset="14.444444444444446%" stop-color="#eeebdb" stop-opacity="1"></stop><stop offset="85.55555555555554%" stop-color="#eadeb8" stop-opacity="1"></stop></linearGradient></defs><defs><linearGradient id="grad1_2" x1="43.8%" y1="0%" x2="100%" y2="100%"><stop offset="14.444444444444446%" stop-color="#e9cf96" stop-opacity="1"></stop><stop offset="85.55555555555554%" stop-color="#eadeb8" stop-opacity="1"></stop></linearGradient></defs><defs><linearGradient id="grad1_3" x1="43.8%" y1="0%" x2="100%" y2="100%"><stop offset="14.444444444444446%" stop-color="#e9cf96" stop-opacity="1"></stop><stop offset="85.55555555555554%" stop-color="#ebbe75" stop-opacity="1"></stop></linearGradient></defs><defs><linearGradient id="grad1_4" x1="43.8%" y1="0%" x2="100%" y2="100%"><stop offset="14.444444444444446%" stop-color="#efac57" stop-opacity="1"></stop><stop offset="85.55555555555554%" stop-color="#ebbe75" stop-opacity="1"></stop></linearGradient></defs><defs><linearGradient id="grad1_5" x1="43.8%" y1="0%" x2="100%" y2="100%"><stop offset="14.444444444444446%" stop-color="#efac57" stop-opacity="1"></stop><stop offset="85.55555555555554%" stop-color="#f4973b" stop-opacity="1"></stop></linearGradient></defs><defs><linearGradient id="grad1_6" x1="43.8%" y1="0%" x2="100%" y2="100%"><stop offset="14.444444444444446%" stop-color="#f97f21" stop-opacity="1"></stop><stop offset="85.55555555555554%" stop-color="#f4973b" stop-opacity="1"></stop></linearGradient></defs><defs><linearGradient id="grad1_7" x1="43.8%" y1="0%" x2="100%" y2="100%"><stop offset="14.444444444444446%" stop-color="#f97f21" stop-opacity="1"></stop><stop offset="85.55555555555554%" stop-color="#ff6209" stop-opacity="1"></stop></linearGradient></defs><defs><linearGradient id="grad2_0" x1="0%" y1="0%" x2="56.3%" y2="100%"><stop offset="14.444444444444446%" stop-color="#eeebdb" stop-opacity="1"></stop><stop offset="85.55555555555554%" stop-color="#eeebdb" stop-opacity="1"></stop></linearGradient></defs><defs><linearGradient id="grad2_1" x1="0%" y1="0%" x2="56.3%" y2="100%"><stop offset="14.444444444444446%" stop-color="#eadeb8" stop-opacity="1"></stop><stop offset="85.55555555555554%" stop-color="#eeebdb" stop-opacity="1"></stop></linearGradient></defs><defs><linearGradient id="grad2_2" x1="0%" y1="0%" x2="56.3%" y2="100%"><stop offset="14.444444444444446%" stop-color="#eadeb8" stop-opacity="1"></stop><stop offset="85.55555555555554%" stop-color="#e9cf96" stop-opacity="1"></stop></linearGradient></defs><defs><linearGradient id="grad2_3" x1="0%" y1="0%" x2="56.3%" y2="100%"><stop offset="14.444444444444446%" stop-color="#ebbe75" stop-opacity="1"></stop><stop offset="85.55555555555554%" stop-color="#e9cf96" stop-opacity="1"></stop></linearGradient></defs><defs><linearGradient id="grad2_4" x1="0%" y1="0%" x2="56.3%" y2="100%"><stop offset="14.444444444444446%" stop-color="#ebbe75" stop-opacity="1"></stop><stop offset="85.55555555555554%" stop-color="#efac57" stop-opacity="1"></stop></linearGradient></defs><defs><linearGradient id="grad2_5" x1="0%" y1="0%" x2="56.3%" y2="100%"><stop offset="14.444444444444446%" stop-color="#f4973b" stop-opacity="1"></stop><stop offset="85.55555555555554%" stop-color="#efac57" stop-opacity="1"></stop></linearGradient></defs><defs><linearGradient id="grad2_6" x1="0%" y1="0%" x2="56.3%" y2="100%"><stop offset="14.444444444444446%" stop-color="#f4973b" stop-opacity="1"></stop><stop offset="85.55555555555554%" stop-color="#f97f21" stop-opacity="1"></stop></linearGradient></defs><defs><linearGradient id="grad2_7" x1="0%" y1="0%" x2="56.3%" y2="100%"><stop offset="14.444444444444446%" stop-color="#ff6209" stop-opacity="1"></stop><stop offset="85.55555555555554%" stop-color="#f97f21" stop-opacity="1"></stop></linearGradient></defs><g transform="translate(960, 0)"><path d="M0 486C-66.2 472.5 -132.4 459.1 -174.5 421.3C-216.6 383.5 -234.5 321.4 -282.8 282.8C-331.2 244.3 -410.1 229.2 -449 186C-487.9 142.8 -487 71.4 -486 0L0 0Z" fill="#fc7215"></path><path d="M0 425.3C-57.9 413.5 -115.9 401.7 -152.7 368.6C-189.5 335.6 -205.2 281.2 -247.5 247.5C-289.8 213.7 -358.8 200.6 -392.9 162.7C-427 124.9 -426.1 62.5 -425.2 0L0 0Z" fill="#f68c2e"></path><path d="M0 364.5C-49.7 354.4 -99.3 344.3 -130.9 316C-162.4 287.6 -175.9 241.1 -212.1 212.1C-248.4 183.2 -307.6 171.9 -336.8 139.5C-366 107.1 -365.2 53.5 -364.5 0L0 0Z" fill="#f1a249"></path><path d="M0 303.8C-41.4 295.3 -82.8 286.9 -109.1 263.3C-135.4 239.7 -146.5 200.9 -176.8 176.8C-207 152.7 -256.3 143.3 -280.6 116.2C-305 89.2 -304.4 44.6 -303.7 0L0 0Z" fill="#edb566"></path><path d="M0 243C-33.1 236.3 -66.2 229.5 -87.3 210.6C-108.3 191.8 -117.2 160.7 -141.4 141.4C-165.6 122.1 -205 114.6 -224.5 93C-244 71.4 -243.5 35.7 -243 0L0 0Z" fill="#eac686"></path><path d="M0 182.3C-24.8 177.2 -49.7 172.2 -65.4 158C-81.2 143.8 -87.9 120.5 -106.1 106.1C-124.2 91.6 -153.8 86 -168.4 69.7C-183 53.5 -182.6 26.8 -182.2 0L0 0Z" fill="#e9d6a7"></path><path d="M0 121.5C-16.6 118.1 -33.1 114.8 -43.6 105.3C-54.1 95.9 -58.6 80.4 -70.7 70.7C-82.8 61.1 -102.5 57.3 -112.3 46.5C-122 35.7 -121.7 17.8 -121.5 0L0 0Z" fill="#ebe4ca"></path><path d="M0 60.8C-8.3 59.1 -16.6 57.4 -21.8 52.7C-27.1 47.9 -29.3 40.2 -35.4 35.4C-41.4 30.5 -51.3 28.7 -56.1 23.2C-61 17.8 -60.9 8.9 -60.7 0L0 0Z" fill="#eeebdb"></path></g><g transform="translate(0, 540)"><path d="M0 -486C71.3 -486.6 142.6 -487.3 186 -449C229.4 -410.7 244.8 -333.5 286.4 -286.4C328 -239.2 395.7 -222.2 433.3 -179.5C470.9 -136.8 478.5 -68.4 486 0L0 0Z" fill="#fc7215"></path><path d="M0 -425.2C62.4 -425.8 124.8 -426.4 162.7 -392.9C200.7 -359.4 214.2 -291.8 250.6 -250.6C287 -209.3 346.2 -194.4 379.1 -157C412.1 -119.7 418.7 -59.8 425.3 0L0 0Z" fill="#f68c2e"></path><path d="M0 -364.5C53.5 -365 107 -365.5 139.5 -336.8C172 -308 183.6 -250.1 214.8 -214.8C246 -179.4 296.8 -166.6 325 -134.6C353.2 -102.6 358.8 -51.3 364.5 0L0 0Z" fill="#f1a249"></path><path d="M0 -303.7C44.6 -304.2 89.1 -304.6 116.2 -280.6C143.3 -256.7 153 -208.4 179 -179C205 -149.5 247.3 -138.9 270.8 -112.2C294.3 -85.5 299 -42.7 303.8 0L0 0Z" fill="#edb566"></path><path d="M0 -243C35.7 -243.3 71.3 -243.6 93 -224.5C114.7 -205.4 122.4 -166.8 143.2 -143.2C164 -119.6 197.8 -111.1 216.6 -89.7C235.5 -68.4 239.2 -34.2 243 0L0 0Z" fill="#eac686"></path><path d="M0 -182.2C26.7 -182.5 53.5 -182.7 69.7 -168.4C86 -154 91.8 -125.1 107.4 -107.4C123 -89.7 148.4 -83.3 162.5 -67.3C176.6 -51.3 179.4 -25.6 182.3 0L0 0Z" fill="#e9d6a7"></path><path d="M0 -121.5C17.8 -121.7 35.7 -121.8 46.5 -112.3C57.3 -102.7 61.2 -83.4 71.6 -71.6C82 -59.8 98.9 -55.5 108.3 -44.9C117.7 -34.2 119.6 -17.1 121.5 0L0 0Z" fill="#ebe4ca"></path><path d="M0 -60.7C8.9 -60.8 17.8 -60.9 23.2 -56.1C28.7 -51.3 30.6 -41.7 35.8 -35.8C41 -29.9 49.5 -27.8 54.2 -22.4C58.9 -17.1 59.8 -8.5 60.8 0L0 0Z" fill="#eeebdb"></path></g></svg>